# 3ds Max Wavefront OBJ Exporter v0.97b - (c)2007 guruware
# File Created: 01.02.2020 21:48:51

mtllib Console+servers.mtl

#
# object Box201
#

v  587.7146 39.2514 271.2271
v  603.8706 39.2514 235.4279
v  603.8706 -0.1187 235.4279
v  587.7146 -0.1187 271.2271
v  694.0161 39.2514 322.7055
v  712.8004 39.2514 281.0824
v  615.3312 39.2514 240.2313
v  598.8987 39.2514 276.6432
v  712.8004 -0.1187 281.0824
v  615.3312 -0.1187 240.2313
v  694.0161 -0.1187 322.7055
v  598.8987 -0.1187 276.6432
v  549.7184 39.2514 339.9453
v  569.6462 39.2514 306.1003
v  569.6462 -0.1187 306.1003
v  549.7184 -0.1187 339.9453
v  649.8385 39.2514 402.6030
v  673.0082 39.2514 363.2520
v  580.5211 39.2514 312.1133
v  560.2522 39.2514 346.5376
v  673.0082 -0.1187 363.2520
v  580.5211 -0.1187 312.1133
v  649.8385 -0.1187 402.6030
v  560.2522 -0.1187 346.5376
v  504.5230 39.2514 404.1579
v  527.9895 39.2514 372.6630
v  527.9895 -0.1187 372.6630
v  504.5230 -0.1187 404.1579
v  597.2905 39.2514 477.2621
v  624.5746 39.2514 440.6435
v  538.1514 39.2514 379.8153
v  514.2832 39.2514 411.8492
v  624.5746 -0.1187 440.6435
v  538.1514 -0.1187 379.8153
v  597.2905 -0.1187 477.2621
v  514.2832 -0.1187 411.8492
v  580.5211 33.0014 312.1133
v  598.8987 33.0014 276.6432
v  673.0082 33.0014 363.2520
v  694.0161 33.0014 322.7055
v  538.1514 33.0014 379.8153
v  560.2522 33.0014 346.5375
v  560.2522 -0.1187 346.5375
v  624.5746 33.0014 440.6435
v  649.8385 33.0014 402.6030
v  564.5522 159.3162 451.4630
v  625.7712 159.3162 361.9357
v  619.5679 131.7206 358.2832
v  558.8981 131.7206 447.0074
v  673.9944 159.3162 265.8372
v  667.3585 131.7206 263.0468
v  597.2905 159.3162 477.2621
v  661.6895 159.3162 383.0842
v  712.8004 159.3162 281.0824
v  712.8004 135.7026 281.0824
v  597.2905 97.2327 477.2621
v  597.2905 135.7026 477.2621
v  558.8981 97.2327 447.0074
v  593.0984 109.2020 342.6980
v  593.0984 97.2327 342.6980
v  534.7720 97.2327 427.9952
v  534.7720 109.2020 427.9952
v  639.3896 109.2020 250.3146
v  639.3896 97.2327 250.3146
v  712.8004 97.2327 281.0824
v  667.3585 97.2327 263.0468
# 66 vertices

vn -0.6308 0.7133 -0.3055
vn -0.2985 0.5788 -0.7589
vn -0.3663 -0.0000 -0.9305
vn -0.8021 -0.4535 -0.3885
vn -0.3109 0.7009 0.6419
vn 0.2757 0.7009 -0.6578
vn 0.2733 0.7071 -0.6521
vn 0.1366 0.9013 0.4110
vn 0.3865 -0.0000 -0.9223
vn -0.4359 0.0000 0.9000
vn 0.2601 -0.5655 0.7826
vn -0.5942 0.7132 -0.3718
vn -0.6134 0.7132 -0.3392
vn -0.7800 -0.4535 -0.4313
vn -0.7555 -0.4535 -0.4728
vn -0.3784 0.7009 0.6046
vn 0.3451 0.7009 -0.6242
vn 0.4145 0.9013 -0.1254
vn 0.0914 0.9013 0.4233
vn 0.4839 -0.0000 -0.8751
vn 0.7894 -0.5655 -0.2389
vn -0.5305 -0.0000 0.8477
vn 0.1741 -0.5655 0.8061
vn -0.8085 0.5787 0.1070
vn -0.5732 0.7132 -0.4034
vn -0.7288 -0.4535 -0.5130
vn -0.9914 -0.0000 0.1310
vn -0.4414 0.7009 0.5602
vn 0.4106 0.7009 -0.5833
vn 0.4256 0.9014 -0.0799
vn -0.4376 0.7071 0.5554
vn 0.5756 0.0000 -0.8178
vn 0.8106 -0.5655 -0.1523
vn -0.6189 -0.0000 0.7854
vn -0.6225 0.7131 -0.3225
vn -0.8879 -0.0000 -0.4600
vn -0.0000 1.0000 -0.0000
vn -0.5840 0.7131 -0.3878
vn -0.8330 -0.0000 -0.5532
vn -0.7467 0.6391 0.1843
vn -0.5122 0.8041 -0.3018
vn -0.7165 0.5553 -0.4222
vn -0.8853 0.3280 0.3297
vn -0.2102 0.6415 -0.7377
vn -0.1476 0.3315 -0.9318
vn -0.4472 0.6914 0.5675
vn 0.2661 0.6859 -0.6773
vn 0.3689 -0.0000 -0.9295
vn -0.6189 0.0000 0.7854
vn -0.7651 0.4601 -0.4505
vn -0.8617 -0.0000 -0.5074
vn -0.9885 -0.0000 0.1512
vn -0.9320 0.3533 0.0812
vn -0.3672 0.3544 -0.8600
vn -0.3331 -0.0000 -0.9429
vn 0.3689 0.0000 -0.9295
vn 0.3917 0.0000 -0.9201
# 57 vertex normals

vt 0.6225 0.1236 0.0000
vt 0.7072 0.1236 0.0000
vt 0.7072 0.2083 0.0000
vt 0.6225 0.2083 0.0000
vt 0.7367 0.2331 0.0000
vt 0.8734 0.2331 0.0000
vt 0.8734 0.6000 0.0000
vt 0.7367 0.6000 0.0000
vt 0.9612 0.1237 0.0000
vt 0.9612 0.2083 0.0000
vt 0.7339 0.2083 0.0000
vt 0.7339 0.1237 0.0000
vt 0.7539 0.0235 0.0000
vt 0.7539 0.1057 0.0000
vt 0.5334 0.1057 0.0000
vt 0.5334 0.0235 0.0000
vt 0.8734 0.6431 0.0000
vt 0.7367 0.6431 0.0000
vt 0.4532 0.1236 0.0000
vt 0.5379 0.1236 0.0000
vt 0.5379 0.2083 0.0000
vt 0.4532 0.2083 0.0000
vt 0.4633 0.2331 0.0000
vt 0.6000 0.2331 0.0000
vt 0.6000 0.6000 0.0000
vt 0.4633 0.6000 0.0000
vt 0.2307 0.1057 0.0000
vt 0.2307 0.0235 0.0000
vt 0.4513 0.0235 0.0000
vt 0.4513 0.1057 0.0000
vt 0.6000 0.6431 0.0000
vt 0.4633 0.6431 0.0000
vt 0.2839 0.1237 0.0000
vt 0.3685 0.1236 0.0000
vt 0.3685 0.2083 0.0000
vt 0.2839 0.2083 0.0000
vt 0.1899 0.2331 0.0000
vt 0.3266 0.2331 0.0000
vt 0.3266 0.6000 0.0000
vt 0.1899 0.6000 0.0000
vt 0.0299 0.2083 0.0000
vt 0.0299 0.1237 0.0000
vt 0.2572 0.1237 0.0000
vt 0.2572 0.2083 0.0000
vt 0.3266 0.6431 0.0000
vt 0.1899 0.6431 0.0000
vt -1.3673 0.4000 0.0000
vt -1.2621 0.4000 0.0000
vt -1.2621 0.6077 0.0000
vt 0.5773 0.8631 0.0000
vt 0.2790 0.8631 0.0000
vt 0.2790 0.7836 0.0000
vt 0.5773 0.7836 0.0000
vt 0.0263 0.8631 0.0000
vt 0.0263 0.7836 0.0000
vt 0.5773 0.9690 0.0000
vt 0.2790 0.9690 0.0000
vt 0.0263 0.9690 0.0000
vt 0.9824 0.9685 0.0000
vt 0.9824 0.8646 0.0000
vt 0.7673 0.8471 0.0000
vt 0.7989 0.9685 0.0000
vt 0.9824 0.6953 0.0000
vt 0.7673 0.6953 0.0000
vt 0.2790 0.7278 0.0000
vt 0.2790 0.6893 0.0000
vt 0.5773 0.6893 0.0000
vt 0.5773 0.7278 0.0000
vt 0.0263 0.7278 0.0000
vt 0.0263 0.6893 0.0000
vt 0.6321 0.7480 0.0000
vt 0.6321 0.6953 0.0000
# 72 texture coords

o Box201
g Box201
usemtl wire_213154229
s 4
f 1/1/1 2/2/2 3/3/3 4/4/4 
s 8
f 5/5/5 6/6/6 7/7/7 8/8/8 
s 16
f 6/9/6 9/10/9 10/11/9 7/12/7 
s 64
f 11/13/10 5/14/5 8/15/8 12/16/11 
s 8
f 7/7/7 2/17/2 1/18/1 8/8/8 
s 16
f 10/11/9 3/3/3 2/2/2 7/12/7 
s 4
f 13/19/12 14/20/13 15/21/14 16/22/15 
s 8
f 17/23/16 18/24/17 19/25/18 20/26/19 
s 16
f 18/27/17 21/28/20 22/29/21 19/30/18 
s 64
f 23/13/22 17/14/16 20/15/19 24/16/23 
s 8
f 19/25/18 14/31/13 13/32/12 20/26/19 
s 4
f 25/33/24 26/34/25 27/35/26 28/36/27 
s 8
f 29/37/28 30/38/29 31/39/30 32/40/31 
s 16
f 30/27/29 33/28/32 34/29/33 31/30/30 
s 64
f 35/41/34 29/42/28 32/43/31 36/44/34 
s 8
f 31/39/30 26/45/25 25/46/24 32/40/31 
s 64
f 32/43/31 25/33/24 28/36/27 36/44/34 
s 1
f 16/47/15 24/48/23 34/48/33 27/47/26 
s 2
f 24/16/23 20/15/19 31/30/30 34/29/33 
s 1
f 20/26/19 13/32/12 26/45/25 31/39/30 
s 2
f 13/19/12 16/22/15 27/35/26 26/34/25 
s 1
f 4/47/4 12/48/11 22/48/21 15/47/14 
s 2
f 12/16/11 8/15/8 19/30/18 22/29/21 
s 1
f 8/8/8 1/18/1 14/31/13 19/25/18 
s 2
f 1/1/1 4/4/4 15/21/14 14/20/13 
s 4
f 37/49/35 38/49/35 12/48/36 22/48/36 
s 8
f 39/24/37 40/5/37 38/8/35 37/25/35 
s 4
f 41/49/38 42/49/38 43/48/39 34/48/39 
s 8
f 44/38/37 45/23/37 42/26/38 41/39/38 
s 4
f 46/50/40 47/51/41 48/52/42 49/53/43 
f 47/51/41 50/54/44 51/55/45 48/52/42 
s 8
f 52/56/46 53/57/37 47/51/41 46/50/40 
f 53/57/37 54/58/47 50/54/44 47/51/41 
s 16
f 54/59/47 55/60/48 51/61/45 50/62/44 
s 64
f 56/63/34 57/60/49 49/61/43 58/64/34 
s 4
f 59/65/50 60/66/51 61/67/52 62/68/53 
f 63/69/54 64/70/55 60/66/51 59/65/50 
s 16
f 55/60/48 65/63/56 66/64/57 51/61/45 
s 64
f 57/60/49 52/59/46 46/62/40 49/61/43 
s off
f 58/64/34 49/61/43 62/71/53 61/72/52 
f 49/53/43 48/52/42 59/65/50 62/68/53 
f 48/52/42 51/55/45 63/69/54 59/65/50 
f 51/61/45 66/64/57 64/72/55 63/71/54 
# 43 polygons

#
# object Box202
#

v  644.7532 39.2514 -57.1476
v  640.9555 39.2514 -96.2395
v  640.9555 -0.1187 -96.2395
v  644.7532 -0.1187 -57.1476
v  762.5759 39.2514 -65.3841
v  758.1603 39.2514 -110.8356
v  653.2867 39.2514 -97.7751
v  657.1495 39.2514 -58.0141
v  758.1603 -0.1187 -110.8356
v  653.2867 -0.1187 -97.7751
v  762.5759 -0.1187 -65.3841
v  657.1495 -0.1187 -58.0141
v  645.9850 39.2514 21.3659
v  646.4314 39.2514 -17.9075
v  646.4314 -0.1187 -17.9075
v  645.9850 -0.1187 21.3659
v  764.0081 39.2514 25.9024
v  764.5271 39.2514 -19.7602
v  658.8564 39.2514 -18.1024
v  658.4023 39.2514 21.8432
v  764.5271 -0.1187 -19.7602
v  658.8564 -0.1187 -18.1024
v  764.0081 -0.1187 25.9024
v  658.4023 -0.1187 21.8432
v  638.7302 39.2514 99.5532
v  643.4154 39.2514 60.5577
v  643.4154 -0.1187 60.5577
v  638.7302 -0.1187 99.5532
v  755.5730 39.2514 116.8095
v  761.0205 39.2514 71.4700
v  655.7888 39.2514 61.7058
v  651.0233 39.2514 101.3688
v  761.0205 -0.1187 71.4700
v  655.7888 -0.1187 61.7058
v  755.5730 -0.1187 116.8095
v  651.0233 -0.1187 101.3688
v  658.8564 33.0014 -18.1024
v  657.1495 33.0014 -58.0141
v  764.5271 33.0014 -19.7603
v  762.5759 33.0014 -65.3841
v  655.7888 33.0014 61.7058
v  658.4023 33.0014 21.8432
v  761.0205 33.0014 71.4700
v  764.0081 33.0014 25.9023
v  714.3383 159.3162 110.7196
v  722.8972 159.3162 2.6008
v  715.6989 131.7206 2.5190
v  707.2168 131.7206 109.6678
v  716.9135 159.3162 -104.7518
v  709.7689 131.7206 -103.8705
v  755.5731 159.3162 116.8095
v  764.5764 159.3162 3.0746
v  758.1604 159.3162 -110.8357
v  758.1604 135.7026 -110.8357
v  755.5731 97.2327 116.8095
v  755.5731 135.7026 116.8095
v  707.2169 97.2327 109.6678
v  684.9839 109.2020 2.1699
v  684.9839 97.2327 2.1699
v  676.8295 97.2327 105.1800
v  676.8295 109.2020 105.1800
v  679.1729 109.2020 -100.9989
v  679.1729 97.2327 -100.9989
v  758.1604 97.2327 -110.8357
v  709.7689 97.2327 -103.8705
# 65 vertices

vn -0.6992 0.7133 0.0489
vn -0.6365 0.5788 -0.5097
vn -0.7807 -0.0000 -0.6249
vn -0.8891 -0.4535 0.0621
vn 0.0497 0.7009 0.7115
vn -0.0881 0.7009 -0.7078
vn -0.0874 0.7071 -0.7016
vn 0.3230 0.9013 0.2885
vn -0.1236 -0.0000 -0.9923
vn 0.0697 0.0000 0.9976
vn 0.6150 -0.5655 0.5495
vn -0.7004 0.7132 -0.0269
vn -0.7008 0.7132 0.0110
vn -0.8912 -0.4535 0.0140
vn -0.8906 -0.4535 -0.0342
vn -0.0274 0.7009 0.7127
vn -0.0112 0.7009 -0.7131
vn 0.2972 0.9013 -0.3151
vn 0.2899 0.9013 0.3217
vn -0.0157 -0.0000 -0.9999
vn 0.5659 -0.5655 -0.6000
vn -0.0384 -0.0000 0.9993
vn 0.5521 -0.5655 0.6127
vn -0.6480 0.5787 0.4951
vn -0.6979 0.7132 -0.0648
vn -0.8875 -0.4535 -0.0823
vn -0.7948 -0.0000 0.6069
vn -0.1042 0.7009 0.7056
vn 0.0659 0.7009 -0.7102
vn 0.3295 0.9014 -0.2811
vn -0.1033 0.7071 0.6995
vn 0.0924 0.0000 -0.9957
vn 0.6273 -0.5655 -0.5354
vn -0.1461 -0.0000 0.9893
vn -0.7004 0.7131 0.0300
vn -0.9991 -0.0000 0.0427
vn -0.0000 1.0000 -0.0000
vn -0.6995 0.7131 -0.0459
vn -0.9979 -0.0000 -0.0654
vn -0.5560 0.6391 0.5314
vn -0.5944 0.8041 -0.0069
vn -0.8316 0.5553 -0.0097
vn -0.6039 0.3280 0.7264
vn -0.5494 0.6415 -0.5354
vn -0.5917 0.3315 -0.7349
vn -0.1056 0.6914 0.7147
vn -0.1062 0.6859 -0.7199
vn -0.1425 -0.0000 -0.9898
vn -0.1461 0.0000 0.9893
vn -0.8878 0.4601 -0.0101
vn -0.9999 -0.0000 -0.0114
vn -0.7822 -0.0000 0.6230
vn -0.7680 0.3533 0.5341
vn -0.7464 0.3544 -0.5632
vn -0.7581 -0.0000 -0.6522
vn -0.1425 0.0000 -0.9898
vn -0.1180 0.0000 -0.9930
# 57 vertex normals

vt 0.6225 0.1236 0.0000
vt 0.7072 0.1236 0.0000
vt 0.7072 0.2083 0.0000
vt 0.6225 0.2083 0.0000
vt 0.7367 0.2331 0.0000
vt 0.8734 0.2331 0.0000
vt 0.8734 0.6000 0.0000
vt 0.7367 0.6000 0.0000
vt 0.9612 0.1237 0.0000
vt 0.9612 0.2083 0.0000
vt 0.7339 0.2083 0.0000
vt 0.7339 0.1237 0.0000
vt 0.7539 0.0235 0.0000
vt 0.7539 0.1057 0.0000
vt 0.5334 0.1057 0.0000
vt 0.5334 0.0235 0.0000
vt 0.8734 0.6431 0.0000
vt 0.7367 0.6431 0.0000
vt 0.4532 0.1236 0.0000
vt 0.5379 0.1236 0.0000
vt 0.5379 0.2083 0.0000
vt 0.4532 0.2083 0.0000
vt 0.4633 0.2331 0.0000
vt 0.6000 0.2331 0.0000
vt 0.6000 0.6000 0.0000
vt 0.4633 0.6000 0.0000
vt 0.2307 0.1057 0.0000
vt 0.2307 0.0235 0.0000
vt 0.4513 0.0235 0.0000
vt 0.4513 0.1057 0.0000
vt 0.6000 0.6431 0.0000
vt 0.4633 0.6431 0.0000
vt 0.2839 0.1237 0.0000
vt 0.3685 0.1236 0.0000
vt 0.3685 0.2083 0.0000
vt 0.2839 0.2083 0.0000
vt 0.1899 0.2331 0.0000
vt 0.3266 0.2331 0.0000
vt 0.3266 0.6000 0.0000
vt 0.1899 0.6000 0.0000
vt 0.0299 0.2083 0.0000
vt 0.0299 0.1237 0.0000
vt 0.2572 0.1237 0.0000
vt 0.2572 0.2083 0.0000
vt 0.3266 0.6431 0.0000
vt 0.1899 0.6431 0.0000
vt -1.3673 0.4000 0.0000
vt -1.2621 0.4000 0.0000
vt -1.2621 0.6077 0.0000
vt 0.5773 0.8631 0.0000
vt 0.2790 0.8631 0.0000
vt 0.2790 0.7836 0.0000
vt 0.5773 0.7836 0.0000
vt 0.0263 0.8631 0.0000
vt 0.0263 0.7836 0.0000
vt 0.5773 0.9690 0.0000
vt 0.2790 0.9690 0.0000
vt 0.0263 0.9690 0.0000
vt 0.9824 0.9685 0.0000
vt 0.9824 0.8646 0.0000
vt 0.7673 0.8471 0.0000
vt 0.7989 0.9685 0.0000
vt 0.9824 0.6953 0.0000
vt 0.7673 0.6953 0.0000
vt 0.2790 0.7278 0.0000
vt 0.2790 0.6893 0.0000
vt 0.5773 0.6893 0.0000
vt 0.5773 0.7278 0.0000
vt 0.0263 0.7278 0.0000
vt 0.0263 0.6893 0.0000
vt 0.6321 0.7480 0.0000
vt 0.6321 0.6953 0.0000
# 72 texture coords

o Box202
g Box202
usemtl wire_213154229
s 4
f 67/73/58 68/74/59 69/75/60 70/76/61 
s 8
f 71/77/62 72/78/63 73/79/64 74/80/65 
s 16
f 72/81/63 75/82/66 76/83/66 73/84/64 
s 64
f 77/85/67 71/86/62 74/87/65 78/88/68 
s 8
f 73/79/64 68/89/59 67/90/58 74/80/65 
s 16
f 76/83/66 69/75/60 68/74/59 73/84/64 
s 4
f 79/91/69 80/92/70 81/93/71 82/94/72 
s 8
f 83/95/73 84/96/74 85/97/75 86/98/76 
s 16
f 84/99/74 87/100/77 88/101/78 85/102/75 
s 64
f 89/85/79 83/86/73 86/87/76 90/88/80 
s 8
f 85/97/75 80/103/70 79/104/69 86/98/76 
s 4
f 91/105/81 92/106/82 93/107/83 94/108/84 
s 8
f 95/109/85 96/110/86 97/111/87 98/112/88 
s 16
f 96/99/86 99/100/89 100/101/90 97/102/87 
s 64
f 101/113/91 95/114/85 98/115/88 102/116/91 
s 8
f 97/111/87 92/117/82 91/118/81 98/112/88 
s 64
f 98/115/88 91/105/81 94/108/84 102/116/91 
s 1
f 82/119/72 90/120/80 100/120/90 93/119/83 
s 2
f 90/88/80 86/87/76 97/102/87 100/101/90 
s 1
f 86/98/76 79/104/69 92/117/82 97/111/87 
s 2
f 79/91/69 82/94/72 93/107/83 92/106/82 
s 1
f 70/119/61 78/120/68 88/120/78 81/119/71 
s 2
f 78/88/68 74/87/65 85/102/75 88/101/78 
s 1
f 74/80/65 67/90/58 80/103/70 85/97/75 
s 2
f 67/73/58 70/76/61 81/93/71 80/92/70 
s 4
f 103/121/92 104/121/92 78/120/93 88/120/93 
s 8
f 105/96/94 106/77/94 104/80/92 103/97/92 
s 4
f 107/121/95 108/121/95 90/120/96 100/120/96 
s 8
f 109/110/94 110/95/94 108/98/95 107/111/95 
s 4
f 111/122/97 112/123/98 113/124/99 114/125/100 
f 112/123/98 115/126/101 116/127/102 113/124/99 
s 8
f 117/128/103 118/129/94 112/123/98 111/122/97 
f 118/129/94 119/130/104 115/126/101 112/123/98 
s 16
f 119/131/104 120/132/105 116/133/102 115/134/101 
s 64
f 121/135/91 122/132/106 114/133/100 123/136/91 
s 4
f 124/137/107 125/138/108 126/139/109 127/140/110 
f 128/141/111 129/142/112 125/138/108 124/137/107 
s 16
f 120/132/105 130/135/113 131/136/114 116/133/102 
s 64
f 122/132/106 117/131/103 111/134/97 114/133/100 
s off
f 123/136/91 114/133/100 127/143/110 126/144/109 
f 114/125/100 113/124/99 124/137/107 127/140/110 
f 113/124/99 116/127/102 128/141/111 124/137/107 
f 116/133/102 131/136/114 129/144/112 128/143/111 
# 43 polygons

#
# object Box203
#

v  530.8468 39.2514 -370.3706
v  508.1022 39.2514 -402.3907
v  508.1022 -0.1187 -402.3907
v  530.8468 -0.1187 -370.3706
v  628.9521 39.2514 -436.1383
v  602.5073 39.2514 -473.3675
v  518.0347 39.2514 -409.8582
v  541.1686 39.2514 -377.2901
v  602.5073 -0.1187 -473.3675
v  518.0347 -0.1187 -409.8582
v  628.9521 -0.1187 -436.1383
v  541.1686 -0.1187 -377.2901
v  570.9799 39.2514 -302.8782
v  551.8265 39.2514 -337.1674
v  551.8265 -0.1187 -337.1674
v  570.9799 -0.1187 -302.8782
v  675.6143 39.2514 -357.6660
v  653.3448 39.2514 -397.5334
v  562.5074 39.2514 -343.5186
v  581.9886 39.2514 -308.6425
v  653.3448 -0.1187 -397.5334
v  562.5074 -0.1187 -343.5186
v  675.6143 -0.1187 -357.6660
v  581.9886 -0.1187 -308.6425
v  603.5891 39.2514 -231.4463
v  588.2510 39.2514 -267.6035
v  588.2510 -0.1187 -267.6035
v  603.5891 -0.1187 -231.4463
v  713.5284 39.2514 -274.6131
v  695.6950 39.2514 -316.6525
v  599.5553 39.2514 -272.7640
v  615.1560 39.2514 -235.9879
v  695.6950 -0.1187 -316.6525
v  599.5553 -0.1187 -272.7640
v  713.5284 -0.1187 -274.6131
v  615.1560 -0.1187 -235.9879
v  562.5073 33.0014 -343.5186
v  541.1686 33.0014 -377.2901
v  653.3448 33.0014 -397.5334
v  628.9521 33.0014 -436.1383
v  599.5553 33.0014 -272.7640
v  581.9886 33.0014 -308.6425
v  695.6950 33.0014 -316.6525
v  675.6142 33.0014 -357.6660
v  674.7300 159.3162 -259.3792
v  628.3595 159.3162 -357.4236
v  622.0748 131.7206 -353.9130
v  668.0294 131.7206 -256.7482
v  569.7554 159.3162 -447.5677
v  563.9965 131.7206 -443.2484
v  713.5285 159.3162 -274.6131
v  664.7491 159.3162 -377.7503
v  602.5073 159.3162 -473.3676
v  602.5073 135.7026 -473.3676
v  713.5285 97.2327 -274.6131
v  713.5285 135.7026 -274.6131
v  668.0294 97.2327 -256.7483
v  595.2578 109.2020 -338.9335
v  595.2578 97.2327 -338.9335
v  639.4374 97.2327 -245.5218
v  639.4374 109.2020 -245.5218
v  538.8852 109.2020 -425.5343
v  538.8852 97.2327 -425.5343
v  602.5073 97.2327 -473.3676
v  563.9965 97.2327 -443.2484
# 65 vertices

vn -0.5822 0.7133 0.3903
vn -0.8058 0.5788 -0.1255
vn -0.9881 -0.0000 -0.1536
vn -0.7403 -0.4535 0.4963
vn 0.3971 0.7009 0.5924
vn -0.4286 0.7009 -0.5701
vn -0.4249 0.7071 -0.5652
vn 0.4237 0.9013 0.0896
vn -0.6009 -0.0000 -0.7993
vn 0.5568 0.0000 0.8306
vn 0.8069 -0.5655 0.1706
vn -0.6209 0.7132 0.3251
vn -0.6025 0.7132 0.3582
vn -0.7661 -0.4535 0.4555
vn -0.7896 -0.4535 0.4134
vn 0.3308 0.7009 0.6318
vn -0.3645 0.7009 -0.6130
vn 0.1010 0.9013 -0.4211
vn 0.4116 0.9013 0.1348
vn -0.5111 -0.0000 -0.8595
vn 0.1924 -0.5655 -0.8020
vn 0.4639 -0.0000 0.8859
vn 0.7837 -0.5655 0.2567
vn -0.3158 0.5787 0.7519
vn -0.6376 0.7132 0.2911
vn -0.8108 -0.4535 0.3701
vn -0.3874 -0.0000 0.9219
vn 0.2607 0.7009 0.6639
vn -0.2962 0.7009 -0.6489
vn 0.1459 0.9014 -0.4077
vn 0.2584 0.7071 0.6582
vn -0.4153 0.0000 -0.9097
vn 0.2778 -0.5655 -0.7766
vn 0.3655 -0.0000 0.9308
vn -0.5927 0.7131 0.3745
vn -0.8454 -0.0000 0.5342
vn -0.0000 1.0000 0.0000
vn -0.6296 0.7131 0.3083
vn -0.8981 -0.0000 0.4397
vn -0.2179 0.6391 0.7376
vn -0.5191 0.8041 0.2897
vn -0.7262 0.5553 0.4053
vn -0.1624 0.3280 0.9306
vn -0.7429 0.6415 -0.1910
vn -0.8789 0.3315 -0.3430
vn 0.2641 0.6914 0.6725
vn -0.4503 0.6859 -0.5716
vn -0.6161 -0.0000 -0.7877
vn 0.3655 0.0000 0.9308
vn -0.7751 0.4601 0.4330
vn -0.8730 -0.0000 0.4877
vn -0.3685 -0.0000 0.9296
vn -0.4005 0.3533 0.8454
vn -0.9277 0.3544 -0.1172
vn -0.9821 -0.0000 -0.1886
vn -0.6161 0.0000 -0.7877
vn -0.5964 0.0000 -0.8027
# 57 vertex normals

vt 0.6225 0.1236 0.0000
vt 0.7072 0.1236 0.0000
vt 0.7072 0.2083 0.0000
vt 0.6225 0.2083 0.0000
vt 0.7367 0.2331 0.0000
vt 0.8734 0.2331 0.0000
vt 0.8734 0.6000 0.0000
vt 0.7367 0.6000 0.0000
vt 0.9612 0.1237 0.0000
vt 0.9612 0.2083 0.0000
vt 0.7339 0.2083 0.0000
vt 0.7339 0.1237 0.0000
vt 0.7539 0.0235 0.0000
vt 0.7539 0.1057 0.0000
vt 0.5334 0.1057 0.0000
vt 0.5334 0.0235 0.0000
vt 0.8734 0.6431 0.0000
vt 0.7367 0.6431 0.0000
vt 0.4532 0.1236 0.0000
vt 0.5379 0.1236 0.0000
vt 0.5379 0.2083 0.0000
vt 0.4532 0.2083 0.0000
vt 0.4633 0.2331 0.0000
vt 0.6000 0.2331 0.0000
vt 0.6000 0.6000 0.0000
vt 0.4633 0.6000 0.0000
vt 0.2307 0.1057 0.0000
vt 0.2307 0.0235 0.0000
vt 0.4513 0.0235 0.0000
vt 0.4513 0.1057 0.0000
vt 0.6000 0.6431 0.0000
vt 0.4633 0.6431 0.0000
vt 0.2839 0.1237 0.0000
vt 0.3685 0.1236 0.0000
vt 0.3685 0.2083 0.0000
vt 0.2839 0.2083 0.0000
vt 0.1899 0.2331 0.0000
vt 0.3266 0.2331 0.0000
vt 0.3266 0.6000 0.0000
vt 0.1899 0.6000 0.0000
vt 0.0299 0.2083 0.0000
vt 0.0299 0.1237 0.0000
vt 0.2572 0.1237 0.0000
vt 0.2572 0.2083 0.0000
vt 0.3266 0.6431 0.0000
vt 0.1899 0.6431 0.0000
vt -1.3673 0.4000 0.0000
vt -1.2621 0.4000 0.0000
vt -1.2621 0.6077 0.0000
vt 0.5773 0.8631 0.0000
vt 0.2790 0.8631 0.0000
vt 0.2790 0.7836 0.0000
vt 0.5773 0.7836 0.0000
vt 0.0263 0.8631 0.0000
vt 0.0263 0.7836 0.0000
vt 0.5773 0.9690 0.0000
vt 0.2790 0.9690 0.0000
vt 0.0263 0.9690 0.0000
vt 0.9824 0.9685 0.0000
vt 0.9824 0.8646 0.0000
vt 0.7673 0.8471 0.0000
vt 0.7989 0.9685 0.0000
vt 0.9824 0.6953 0.0000
vt 0.7673 0.6953 0.0000
vt 0.2790 0.7278 0.0000
vt 0.2790 0.6893 0.0000
vt 0.5773 0.6893 0.0000
vt 0.5773 0.7278 0.0000
vt 0.0263 0.7278 0.0000
vt 0.0263 0.6893 0.0000
vt 0.6321 0.7480 0.0000
vt 0.6321 0.6953 0.0000
# 72 texture coords

o Box203
g Box203
usemtl wire_213154229
s 4
f 132/145/115 133/146/116 134/147/117 135/148/118 
s 8
f 136/149/119 137/150/120 138/151/121 139/152/122 
s 16
f 137/153/120 140/154/123 141/155/123 138/156/121 
s 64
f 142/157/124 136/158/119 139/159/122 143/160/125 
s 8
f 138/151/121 133/161/116 132/162/115 139/152/122 
s 16
f 141/155/123 134/147/117 133/146/116 138/156/121 
s 4
f 144/163/126 145/164/127 146/165/128 147/166/129 
s 8
f 148/167/130 149/168/131 150/169/132 151/170/133 
s 16
f 149/171/131 152/172/134 153/173/135 150/174/132 
s 64
f 154/157/136 148/158/130 151/159/133 155/160/137 
s 8
f 150/169/132 145/175/127 144/176/126 151/170/133 
s 4
f 156/177/138 157/178/139 158/179/140 159/180/141 
s 8
f 160/181/142 161/182/143 162/183/144 163/184/145 
s 16
f 161/171/143 164/172/146 165/173/147 162/174/144 
s 64
f 166/185/148 160/186/142 163/187/145 167/188/148 
s 8
f 162/183/144 157/189/139 156/190/138 163/184/145 
s 64
f 163/187/145 156/177/138 159/180/141 167/188/148 
s 1
f 147/191/129 155/192/137 165/192/147 158/191/140 
s 2
f 155/160/137 151/159/133 162/174/144 165/173/147 
s 1
f 151/170/133 144/176/126 157/189/139 162/183/144 
s 2
f 144/163/126 147/166/129 158/179/140 157/178/139 
s 1
f 135/191/118 143/192/125 153/192/135 146/191/128 
s 2
f 143/160/125 139/159/122 150/174/132 153/173/135 
s 1
f 139/152/122 132/162/115 145/175/127 150/169/132 
s 2
f 132/145/115 135/148/118 146/165/128 145/164/127 
s 4
f 168/193/149 169/193/149 143/192/150 153/192/150 
s 8
f 170/168/151 171/149/151 169/152/149 168/169/149 
s 4
f 172/193/152 173/193/152 155/192/153 165/192/153 
s 8
f 174/182/151 175/167/151 173/170/152 172/183/152 
s 4
f 176/194/154 177/195/155 178/196/156 179/197/157 
f 177/195/155 180/198/158 181/199/159 178/196/156 
s 8
f 182/200/160 183/201/151 177/195/155 176/194/154 
f 183/201/151 184/202/161 180/198/158 177/195/155 
s 16
f 184/203/161 185/204/162 181/205/159 180/206/158 
s 64
f 186/207/148 187/204/163 179/205/157 188/208/148 
s 4
f 189/209/164 190/210/165 191/211/166 192/212/167 
f 193/213/168 194/214/169 190/210/165 189/209/164 
s 16
f 185/204/162 195/207/170 196/208/171 181/205/159 
s 64
f 187/204/163 182/203/160 176/206/154 179/205/157 
s off
f 188/208/148 179/205/157 192/215/167 191/216/166 
f 179/197/157 178/196/156 189/209/164 192/212/167 
f 178/196/156 181/199/159 193/213/168 189/209/164 
f 181/205/159 196/208/171 194/216/169 193/215/168 
# 43 polygons

